<svg width="400" height="400" viewBox="0 0 400 400" fill="none" xmlns="http://www.w3.org/2000/svg">
<path d="M176.195 99.2847L52.1092 268.906C40.8588 284.285 51.86 305.926 70.9148 305.899C78.7826 305.888 86.1115 301.9 90.3942 295.3L127.645 237.893L204.793 119.001C206.62 116.185 207.593 112.9 207.593 109.543C207.593 92.7407 186.115 85.7234 176.195 99.2847Z" fill="black" fill-opacity="0.6"/>
<path d="M190.999 113.01C287.574 113.01 324.126 121.988 247.389 186.647C237.626 194.874 237.284 210.027 247.098 218.192L328.999 286.327" stroke="black" stroke-opacity="0.6" stroke-width="41.7516" stroke-linecap="round"/>
<path d="M169 112.063C169 100.993 177.993 92.0285 189.063 92.0635L190.812 92.0691C201.833 92.104 210.748 101.048 210.748 112.069V285.96C210.748 297.006 201.794 305.96 190.748 305.96H189C177.954 305.96 169 297.006 169 285.96V112.063Z" fill="white"/>
<path d="M169 112.063C169 100.993 177.993 92.0285 189.063 92.0635L190.812 92.0691C201.833 92.104 210.748 101.048 210.748 112.069V285.96C210.748 297.006 201.794 305.96 190.748 305.96H189C177.954 305.96 169 297.006 169 285.96V112.063Z" fill="black" fill-opacity="0.6"/>
</svg>
