<svg width="400" height="400" viewBox="0 0 400 400" fill="none" xmlns="http://www.w3.org/2000/svg">
<rect width="400" height="400" rx="100" fill="#F9F5F1"/>
<path d="M177.195 100.285L53.1093 269.906C41.8589 285.285 52.8601 306.926 71.9148 306.899C79.7826 306.888 87.1116 302.9 91.3943 296.3L128.645 238.893L205.793 120.001C207.62 117.185 208.593 113.9 208.593 110.543C208.593 93.7407 187.115 86.7234 177.195 100.285Z" fill="black" fill-opacity="0.6"/>
<path d="M191.999 114.01C288.574 114.01 325.126 122.988 248.389 187.647C238.626 195.874 238.284 211.027 248.098 219.192L329.999 287.327" stroke="black" stroke-opacity="0.6" stroke-width="41.7516" stroke-linecap="round"/>
<path d="M170 113.063C170 101.993 178.993 93.0285 190.063 93.0635L191.812 93.0691C202.833 93.104 211.748 102.048 211.748 113.069V286.96C211.748 298.006 202.794 306.96 191.748 306.96H190C178.954 306.96 170 298.006 170 286.96V113.063Z" fill="white"/>
<path d="M170 113.063C170 101.993 178.993 93.0285 190.063 93.0635L191.812 93.0691C202.833 93.104 211.748 102.048 211.748 113.069V286.96C211.748 298.006 202.794 306.96 191.748 306.96H190C178.954 306.96 170 298.006 170 286.96V113.063Z" fill="black" fill-opacity="0.6"/>
</svg>
